<?xml version="1.0" encoding="UTF-8"?>
<!DOCTYPE svg PUBLIC "-//W3C//DTD SVG 1.1//EN" "http://www.w3.org/Graphics/SVG/1.1/DTD/svg11.dtd">
<svg width="149mm" height="115mm" viewBox="0 0 14900 11500" version="1.1" baseProfile="tiny" xmlns="http://www.w3.org/2000/svg" stroke-width="28.222" stroke-linejoin="round" xml:space="preserve">
 <path fill="rgb(255,255,255)" stroke="none" d="M 7465,11543 L 0,11543 0,0 14930,0 14930,11543 7465,11543 Z"/>
 <path fill="none" stroke="rgb(179,179,179)" stroke-linejoin="round" d="M 7835,9752 L 1038,9752 1038,2431 14632,2431 14632,9752 7835,9752 Z"/>
 <path fill="none" stroke="rgb(179,179,179)" stroke-linejoin="round" d="M 14632,9751 L 1038,9751"/>
 <path fill="none" stroke="rgb(179,179,179)" stroke-linejoin="round" d="M 14632,8835 L 1038,8835"/>
 <path fill="none" stroke="rgb(179,179,179)" stroke-linejoin="round" d="M 14632,7920 L 1038,7920"/>
 <path fill="none" stroke="rgb(179,179,179)" stroke-linejoin="round" d="M 14632,7005 L 1038,7005"/>
 <path fill="none" stroke="rgb(179,179,179)" stroke-linejoin="round" d="M 14632,6090 L 1038,6090"/>
 <path fill="none" stroke="rgb(179,179,179)" stroke-linejoin="round" d="M 14632,5175 L 1038,5175"/>
 <path fill="none" stroke="rgb(179,179,179)" stroke-linejoin="round" d="M 14632,4260 L 1038,4260"/>
 <path fill="none" stroke="rgb(179,179,179)" stroke-linejoin="round" d="M 14632,3345 L 1038,3345"/>
 <path fill="none" stroke="rgb(179,179,179)" stroke-linejoin="round" d="M 14632,2430 L 1038,2430"/>
 <path fill="none" stroke="rgb(179,179,179)" stroke-linejoin="round" d="M 1038,9901 L 1038,9751"/>
 <path fill="none" stroke="rgb(179,179,179)" stroke-linejoin="round" d="M 1038,9901 L 1038,9751"/>
 <path fill="none" stroke="rgb(179,179,179)" stroke-linejoin="round" d="M 3757,9901 L 3757,9751"/>
 <path fill="none" stroke="rgb(179,179,179)" stroke-linejoin="round" d="M 3757,9901 L 3757,9751"/>
 <path fill="none" stroke="rgb(179,179,179)" stroke-linejoin="round" d="M 6476,9901 L 6476,9751"/>
 <path fill="none" stroke="rgb(179,179,179)" stroke-linejoin="round" d="M 6476,9901 L 6476,9751"/>
 <path fill="none" stroke="rgb(179,179,179)" stroke-linejoin="round" d="M 9194,9901 L 9194,9751"/>
 <path fill="none" stroke="rgb(179,179,179)" stroke-linejoin="round" d="M 9194,9901 L 9194,9751"/>
 <path fill="none" stroke="rgb(179,179,179)" stroke-linejoin="round" d="M 11913,9901 L 11913,9751"/>
 <path fill="none" stroke="rgb(179,179,179)" stroke-linejoin="round" d="M 11913,9901 L 11913,9751"/>
 <path fill="none" stroke="rgb(179,179,179)" stroke-linejoin="round" d="M 14632,9901 L 14632,9751"/>
 <path fill="none" stroke="rgb(179,179,179)" stroke-linejoin="round" d="M 14632,9901 L 14632,9751"/>
 <path fill="none" stroke="rgb(179,179,179)" stroke-linejoin="round" d="M 1038,9751 L 14632,9751"/>
 <path fill="none" stroke="rgb(179,179,179)" stroke-linejoin="round" d="M 888,9751 L 1038,9751"/>
 <path fill="none" stroke="rgb(179,179,179)" stroke-linejoin="round" d="M 888,9751 L 1038,9751"/>
 <path fill="none" stroke="rgb(179,179,179)" stroke-linejoin="round" d="M 888,8835 L 1038,8835"/>
 <path fill="none" stroke="rgb(179,179,179)" stroke-linejoin="round" d="M 888,8835 L 1038,8835"/>
 <path fill="none" stroke="rgb(179,179,179)" stroke-linejoin="round" d="M 888,7920 L 1038,7920"/>
 <path fill="none" stroke="rgb(179,179,179)" stroke-linejoin="round" d="M 888,7920 L 1038,7920"/>
 <path fill="none" stroke="rgb(179,179,179)" stroke-linejoin="round" d="M 888,7005 L 1038,7005"/>
 <path fill="none" stroke="rgb(179,179,179)" stroke-linejoin="round" d="M 888,7005 L 1038,7005"/>
 <path fill="none" stroke="rgb(179,179,179)" stroke-linejoin="round" d="M 888,6090 L 1038,6090"/>
 <path fill="none" stroke="rgb(179,179,179)" stroke-linejoin="round" d="M 888,6090 L 1038,6090"/>
 <path fill="none" stroke="rgb(179,179,179)" stroke-linejoin="round" d="M 888,5175 L 1038,5175"/>
 <path fill="none" stroke="rgb(179,179,179)" stroke-linejoin="round" d="M 888,5175 L 1038,5175"/>
 <path fill="none" stroke="rgb(179,179,179)" stroke-linejoin="round" d="M 888,4260 L 1038,4260"/>
 <path fill="none" stroke="rgb(179,179,179)" stroke-linejoin="round" d="M 888,4260 L 1038,4260"/>
 <path fill="none" stroke="rgb(179,179,179)" stroke-linejoin="round" d="M 888,3345 L 1038,3345"/>
 <path fill="none" stroke="rgb(179,179,179)" stroke-linejoin="round" d="M 888,3345 L 1038,3345"/>
 <path fill="none" stroke="rgb(179,179,179)" stroke-linejoin="round" d="M 888,2430 L 1038,2430"/>
 <path fill="none" stroke="rgb(179,179,179)" stroke-linejoin="round" d="M 888,2430 L 1038,2430"/>
 <path fill="none" stroke="rgb(179,179,179)" stroke-linejoin="round" d="M 1038,9751 L 1038,2430"/>
 <path fill="rgb(0,69,134)" stroke="none" d="M 12184,9751 L 12728,9751 12728,9622 12184,9622 12184,9751 Z"/>
 <path fill="rgb(0,69,134)" stroke="none" d="M 9465,9751 L 10009,9751 10009,9379 9465,9379 9465,9751 Z"/>
 <path fill="rgb(0,69,134)" stroke="none" d="M 6747,9751 L 7291,9751 7291,8487 6747,8487 6747,9751 Z"/>
 <path fill="rgb(0,69,134)" stroke="none" d="M 4028,9751 L 4572,9751 4572,6104 4028,6104 4028,9751 Z"/>
 <path fill="rgb(0,69,134)" stroke="none" d="M 1309,9751 L 1853,9751 1853,6008 1309,6008 1309,9751 Z"/>
 <path fill="rgb(255,66,14)" stroke="none" d="M 12728,9751 L 13272,9751 13272,9670 12728,9670 12728,9751 Z"/>
 <path fill="rgb(255,66,14)" stroke="none" d="M 10009,9751 L 10553,9751 10553,9505 10009,9505 10009,9751 Z"/>
 <path fill="rgb(255,66,14)" stroke="none" d="M 7291,9751 L 7834,9751 7834,8707 7291,8707 7291,9751 Z"/>
 <path fill="rgb(255,66,14)" stroke="none" d="M 4572,9751 L 5116,9751 5116,7012 4572,7012 4572,9751 Z"/>
 <path fill="rgb(255,66,14)" stroke="none" d="M 1853,9751 L 2397,9751 2397,4707 1853,4707 1853,9751 Z"/>
 <path fill="rgb(255,211,32)" stroke="none" d="M 13272,9751 L 13816,9751 13816,9659 13272,9659 13272,9751 Z"/>
 <path fill="rgb(255,211,32)" stroke="none" d="M 10553,9751 L 11097,9751 11097,9495 10553,9495 10553,9751 Z"/>
 <path fill="rgb(255,211,32)" stroke="none" d="M 7834,9751 L 8378,9751 8378,8328 7834,8328 7834,9751 Z"/>
 <path fill="rgb(255,211,32)" stroke="none" d="M 5116,9751 L 5660,9751 5660,5270 5116,5270 5116,9751 Z"/>
 <path fill="rgb(255,211,32)" stroke="none" d="M 2397,9751 L 2941,9751 2941,6850 2397,6850 2397,9751 Z"/>
 <path fill="rgb(87,157,28)" stroke="none" d="M 13816,9751 L 14360,9751 14360,9722 13816,9722 13816,9751 Z"/>
 <path fill="rgb(87,157,28)" stroke="none" d="M 11097,9751 L 11641,9751 11641,9673 11097,9673 11097,9751 Z"/>
 <path fill="rgb(87,157,28)" stroke="none" d="M 8378,9751 L 8922,9751 8922,9211 8378,9211 8378,9751 Z"/>
 <path fill="rgb(87,157,28)" stroke="none" d="M 5660,9751 L 6204,9751 6204,7403 5660,7403 5660,9751 Z"/>
 <path fill="rgb(87,157,28)" stroke="none" d="M 2941,9751 L 3485,9751 3485,3591 2941,3591 2941,9751 Z"/>
 <text class="TextShape"><tspan class="TextParagraph" font-family="Liberation Sans, sans-serif" font-size="353px" font-weight="400"><tspan class="TextPosition" x="1570" y="10304"><tspan fill="rgb(0,0,0)" stroke="none">Fortran-77</tspan></tspan></tspan></text>
 <text class="TextShape"><tspan class="TextParagraph" font-family="Liberation Sans, sans-serif" font-size="353px" font-weight="400"><tspan class="TextPosition" x="4289" y="10304"><tspan fill="rgb(0,0,0)" stroke="none">Fortran-90</tspan></tspan></tspan></text>
 <text class="TextShape"><tspan class="TextParagraph" font-family="Liberation Sans, sans-serif" font-size="353px" font-weight="400"><tspan class="TextPosition" x="7008" y="10304"><tspan fill="rgb(0,0,0)" stroke="none">Fortran-95</tspan></tspan></tspan></text>
 <text class="TextShape"><tspan class="TextParagraph" font-family="Liberation Sans, sans-serif" font-size="353px" font-weight="400"><tspan class="TextPosition" x="9528" y="10304"><tspan fill="rgb(0,0,0)" stroke="none">Fortran-2003</tspan></tspan></tspan></text>
 <text class="TextShape"><tspan class="TextParagraph" font-family="Liberation Sans, sans-serif" font-size="353px" font-weight="400"><tspan class="TextPosition" x="12247" y="10304"><tspan fill="rgb(0,0,0)" stroke="none">Fortran-2008</tspan></tspan></tspan></text>
 <text class="TextShape"><tspan class="TextParagraph" font-family="Liberation Sans, sans-serif" font-size="353px" font-weight="400"><tspan class="TextPosition" x="602" y="9869"><tspan fill="rgb(0,0,0)" stroke="none">0</tspan></tspan></tspan></text>
 <text class="TextShape"><tspan class="TextParagraph" font-family="Liberation Sans, sans-serif" font-size="353px" font-weight="400"><tspan class="TextPosition" x="299" y="8953"><tspan fill="rgb(0,0,0)" stroke="none">0.1</tspan></tspan></tspan></text>
 <text class="TextShape"><tspan class="TextParagraph" font-family="Liberation Sans, sans-serif" font-size="353px" font-weight="400"><tspan class="TextPosition" x="299" y="8038"><tspan fill="rgb(0,0,0)" stroke="none">0.2</tspan></tspan></tspan></text>
 <text class="TextShape"><tspan class="TextParagraph" font-family="Liberation Sans, sans-serif" font-size="353px" font-weight="400"><tspan class="TextPosition" x="299" y="7123"><tspan fill="rgb(0,0,0)" stroke="none">0.3</tspan></tspan></tspan></text>
 <text class="TextShape"><tspan class="TextParagraph" font-family="Liberation Sans, sans-serif" font-size="353px" font-weight="400"><tspan class="TextPosition" x="299" y="6208"><tspan fill="rgb(0,0,0)" stroke="none">0.4</tspan></tspan></tspan></text>
 <text class="TextShape"><tspan class="TextParagraph" font-family="Liberation Sans, sans-serif" font-size="353px" font-weight="400"><tspan class="TextPosition" x="299" y="5292"><tspan fill="rgb(0,0,0)" stroke="none">0.5</tspan></tspan></tspan></text>
 <text class="TextShape"><tspan class="TextParagraph" font-family="Liberation Sans, sans-serif" font-size="353px" font-weight="400"><tspan class="TextPosition" x="299" y="4377"><tspan fill="rgb(0,0,0)" stroke="none">0.6</tspan></tspan></tspan></text>
 <text class="TextShape"><tspan class="TextParagraph" font-family="Liberation Sans, sans-serif" font-size="353px" font-weight="400"><tspan class="TextPosition" x="299" y="3462"><tspan fill="rgb(0,0,0)" stroke="none">0.7</tspan></tspan></tspan></text>
 <text class="TextShape"><tspan class="TextParagraph" font-family="Liberation Sans, sans-serif" font-size="353px" font-weight="400"><tspan class="TextPosition" x="299" y="2547"><tspan fill="rgb(0,0,0)" stroke="none">0.8</tspan></tspan></tspan></text>
 <text class="TextShape"><tspan class="TextParagraph" font-family="Liberation Sans, sans-serif" font-size="459px" font-weight="400"><tspan class="TextPosition" x="3678" y="900"><tspan fill="rgb(0,0,0)" stroke="none">Fortran revision mentions in literature</tspan></tspan></tspan></text>
 <text class="TextShape"><tspan class="TextParagraph" font-family="Liberation Sans, sans-serif" font-size="388px" font-weight="400"><tspan class="TextPosition" x="4354" y="1827"><tspan fill="rgb(0,0,0)" stroke="none">Normalised to total over all revisions</tspan></tspan></tspan></text>
 <path fill="rgb(0,69,134)" stroke="none" d="M 8881,3372 L 8775,3372 8775,3161 8986,3161 8986,3372 8881,3372 Z"/>
 <path fill="rgb(255,66,14)" stroke="none" d="M 8881,4031 L 8775,4031 8775,3820 8986,3820 8986,4031 8881,4031 Z"/>
 <path fill="rgb(255,211,32)" stroke="none" d="M 8881,4690 L 8775,4690 8775,4479 8986,4479 8986,4690 8881,4690 Z"/>
 <path fill="rgb(87,157,28)" stroke="none" d="M 8881,5349 L 8775,5349 8775,5138 8986,5138 8986,5349 8881,5349 Z"/>
 <text class="TextShape"><tspan class="TextParagraph" font-family="Liberation Sans, sans-serif" font-size="353px" font-weight="400"><tspan class="TextPosition" x="9086" y="3383"><tspan fill="rgb(0,0,0)" stroke="none">2006-2016 Google Scholar</tspan></tspan></tspan></text>
 <text class="TextShape"><tspan class="TextParagraph" font-family="Liberation Sans, sans-serif" font-size="353px" font-weight="400"><tspan class="TextPosition" x="9086" y="4042"><tspan fill="rgb(0,0,0)" stroke="none">1978-2016 Google Scholar</tspan></tspan></tspan></text>
 <text class="TextShape"><tspan class="TextParagraph" font-family="Liberation Sans, sans-serif" font-size="353px" font-weight="400"><tspan class="TextPosition" x="9086" y="4701"><tspan fill="rgb(0,0,0)" stroke="none">2006-2016 ScienceDirect</tspan></tspan></tspan></text>
 <text class="TextShape"><tspan class="TextParagraph" font-family="Liberation Sans, sans-serif" font-size="353px" font-weight="400"><tspan class="TextPosition" x="9086" y="5360"><tspan fill="rgb(0,0,0)" stroke="none">1978-2016 ScienceDirect</tspan></tspan></tspan></text>
 <text class="TextShape"><tspan class="TextParagraph" font-family="Liberation Sans, sans-serif" font-size="318px" font-weight="400"><tspan class="TextPosition" x="6859" y="10982"><tspan fill="rgb(0,0,0)" stroke="none">Revision</tspan></tspan></tspan></text>
</svg>